Coordinates
version=1
nRows=24
nColumns=24
inDegrees=yes

Units are S.I. units (second, meters, Newtons, ...)
Angles are in degrees.

endheader
time	pelvis_tilt	pelvis_list	pelvis_rotation	pelvis_tx	pelvis_ty	pelvis_tz	hip_flexion_r	hip_adduction_r	hip_rotation_r	knee_angle_r	ankle_angle_r	subtalar_angle_r	mtp_angle_r	hip_flexion_l	hip_adduction_l	hip_rotation_l	knee_angle_l	ankle_angle_l	subtalar_angle_l	mtp_angle_l	lumbar_extension	lumbar_bending	lumbar_rotation
      1.77466667	      1.84160268	      7.74766261	     -4.48704716	      1.37470469	      1.02380235	      0.23490883	     15.56407751	     -7.59027826	      2.68751913	    -61.49784839	      7.40928705	    -12.66951847	      2.05891902	      3.00828467	     14.03363879	      0.96980530	     -7.44567766	     -0.18777030	    -17.19468784	      9.13528385	     -1.62806922	     -8.73209152	      5.24652590
      1.77883333	      1.83576434	      7.67093064	     -4.20732265	      1.37923353	      1.02419896	      0.23435300	     15.95542941	     -7.48397135	      2.57097050	    -60.90471739	      7.49974915	    -12.73030951	      1.91898212	      2.54257738	     14.00231697	      1.38441739	     -7.17705060	     -0.16877322	    -17.30865620	      9.02489824	     -1.69366509	     -8.65283249	      4.86565643
      1.78300000	      1.79480780	      7.60154002	     -3.92701359	      1.38379456	      1.02448428	      0.23380418	     16.38180553	     -7.39106966	      2.45154259	    -60.30587451	      7.62034256	    -12.73533525	      1.88715973	      2.14725388	     13.96109365	      1.67448557	     -6.96999692	     -0.06316192	    -17.18934453	      9.00277130	     -1.70352594	     -8.54552042	      4.82325111
      1.78716667	      1.78726533	      7.53686143	     -3.63723730	      1.38829424	      1.02479987	      0.23327133	     16.76055932	     -7.30511219	      2.33732088	    -59.67326703	      7.69556808	    -12.76983337	      1.77717532	      1.70997588	     13.92814393	      2.05434896	     -6.75035478	      0.01166434	    -17.23000605	      8.91920105	     -1.76832330	     -8.47906503	      4.52393647
      1.79133333	      1.73519143	      7.47104974	     -3.34284320	      1.39282871	      1.02502441	      0.23273521	     17.17757346	     -7.22386670	      2.21543845	    -59.01661406	      7.79074602	    -12.75968565	      1.73374677	      1.33471497	     13.88080897	      2.36464313	     -6.55773336	      0.08603906	    -17.12726068	      8.88625441	     -1.76819972	     -8.39859902	      4.43899385
      1.79550000	      1.70509745	      7.40943347	     -3.05673217	      1.39732453	      1.02525643	      0.23221628	     17.56245154	     -7.14804806	      2.10988579	    -58.33387432	      7.86141594	    -12.76672604	      1.64475994	      0.92903291	     13.83985447	      2.72248035	     -6.34911852	      0.18067227	    -17.13943625	      8.81583362	     -1.79926378	     -8.31721524	      4.16234525
      1.79966667	      1.67928324	      7.35054921	     -2.77278924	      1.40181682	      1.02547730	      0.23171777	     17.93275553	     -7.07864053	      2.00802822	    -57.62456427	      7.95707593	    -12.73566307	      1.60217187	      0.53983864	     13.79181317	      3.01545861	     -6.16962552	      0.24175762	    -17.04157983	      8.78269662	     -1.83937647	     -8.24624739	      4.07843206
      1.80383333	      1.66329518	      7.30480494	     -2.48977985	      1.40634124	      1.02566643	      0.23121936	     18.28342139	     -7.03032812	      1.90919344	    -56.89956583	      8.03850967	    -12.71546149	      1.49104436	      0.11753706	     13.75993759	      3.38613915	     -5.95433082	      0.29265272	    -17.06855275	      8.69053463	     -1.88775141	     -8.19098050	      3.78840584
      1.80800000	      1.59788692	      7.25723212	     -2.21438813	      1.41083650	      1.02575421	      0.23074797	     18.68369323	     -6.97564576	      1.82697410	    -56.15793086	      8.11381724	    -12.66793629	      1.46880399	     -0.22641315	     13.71322569	      3.65768180	     -5.77686633	      0.39717762	    -16.94624886	      8.67462446	     -1.87407646	     -8.12133595	      3.74685947
      1.81216667	      1.58128136	      7.21463760	     -1.92046135	      1.41530822	      1.02589902	      0.23026732	     19.01159772	     -6.93568589	      1.73462549	    -55.37945957	      8.17849135	    -12.62272967	      1.36120989	     -0.62194554	     13.67468575	      4.01755637	     -5.60554772	      0.45350869	    -16.97870309	      8.58319762	     -1.91563173	     -8.07906932	      3.44348732
      1.81633333	      1.53693564	      7.16888345	     -1.63742566	      1.41982267	      1.02598338	      0.22980093	     19.35917788	     -6.89432483	      1.64845981	    -54.57753060	      8.23606399	    -12.54753835	      1.33170447	     -0.97846694	     13.62508063	      4.30788088	     -5.45575088	      0.56373286	    -16.87651994	      8.55888673	     -1.92577693	     -8.02041514	      3.38568992
      1.82050000	      1.51726241	      7.13099762	     -1.35813853	      1.42426825	      1.02605980	      0.22934686	     19.67928080	     -6.86646206	      1.56578730	    -53.76471529	      8.28274425	    -12.48650558	      1.26961514	     -1.36003091	     13.58327264	      4.63908513	     -5.29844079	      0.66822494	    -16.87131912	      8.50409430	     -1.97427149	     -7.97741244	      3.12664071
      1.82466667	      1.45410811	      7.09995969	     -1.07742997	      1.42876053	      1.02605195	      0.22891549	     20.03274566	     -6.84114213	      1.50126990	    -52.93371443	      8.34382174	    -12.40646689	      1.24575752	     -1.68803624	     13.53970378	      4.91164929	     -5.15654702	      0.74769604	    -16.76944050	      8.48385113	     -1.96997232	     -7.93794259	      3.06168676
      1.82883333	      1.43982076	      7.06080299	     -0.79705546	      1.43320377	      1.02611015	      0.22848142	     20.31781871	     -6.81654490	      1.42371288	    -52.06754064	      8.36173372	    -12.34550291	      1.19508619	     -2.07368446	     13.48814091	      5.23770883	     -4.99910094	      0.85792141	    -16.75081477	      8.43677867	     -2.01570542	     -7.89432868	      2.80413459
      1.83300000	      1.38216452	      7.04557646	     -0.52045279	      1.43767305	      1.02604873	      0.22807734	     20.65306639	     -6.81599529	      1.36428627	    -51.20892118	      8.40636661	    -12.25367510	      1.17376612	     -2.40083853	     13.45411566	      5.50905678	     -4.86207765	      0.93850075	    -16.65269617	      8.41913548	     -2.01699719	     -7.87398675	      2.73365496
      1.83716667	      1.34488351	      7.01336767	     -0.24898080	      1.44214781	      1.02600916	      0.22766742	     20.94674179	     -6.80123193	      1.30331464	    -50.31360045	      8.43042255	    -12.16524539	      1.15336405	     -2.74861355	     13.40155536	      5.78607342	     -4.72894856	      1.05272703	    -16.57629547	      8.40141606	     -2.03903149	     -7.83540372	      2.62019756
      1.84133333	      1.33507811	      7.00265828	      0.01333006	      1.44659177	      1.02596984	      0.22728640	     21.21305783	     -6.81152053	      1.24815953	    -49.41831933	      8.43188148	    -12.09978848	      1.11192385	     -3.13026449	     13.37016305	      6.08983574	     -4.58498136	      1.17381781	    -16.56019903	      8.36133888	     -2.09960026	     -7.82811019	      2.36092114
      1.84550000	      1.27963577	      6.98664676	      0.28292487	      1.45105043	      1.02584912	      0.22690131	     21.51371062	     -6.81942896	      1.19121518	    -48.50047016	      8.44612703	    -12.01239112	      1.09580426	     -3.44556145	     13.32774932	      6.34704688	     -4.47092351	      1.27865249	    -16.45576130	      8.34831260	     -2.10267982	     -7.80636431	      2.30006613
      1.84966667	      1.26821367	      6.97283232	      0.53848738	      1.45549182	      1.02576747	      0.22654364	     21.75766403	     -6.82778746	      1.14443663	    -47.56368324	      8.43473991	    -11.95226990	      1.06052259	     -3.82030391	     13.28504921	      6.62378792	     -4.33225774	      1.40656284	    -16.40806892	      8.31513948	     -2.16316271	     -7.79498070	      2.08168040
      1.85383333	      1.19923646	      6.98226052	      0.77823085	      1.45999906	      1.02555001	      0.22621761	     22.06833162	     -6.85712997	      1.12392034	    -46.63738078	      8.43804125	    -11.86635653	      1.05301773	     -4.13418230	     13.26405976	      6.85660676	     -4.18670203	      1.52428772	    -16.28408566	      8.31160998	     -2.12255565	     -7.80799134	      2.06056834
      1.85800000	      1.16885264	      6.95315684	      1.05949798	      1.46442158	      1.02542483	      0.22583151	     22.29873375	     -6.86657900	      1.03718596	    -45.64775770	      8.40107291	    -11.80265228	      1.03714616	     -4.45023054	     13.20023021	      7.11342509	     -4.12754631	      1.67906606	    -16.21441508	      8.29981362	     -2.17486025	     -7.76801545	      1.93040870
      1.86216667	      1.14006432	      6.94088478	      1.31327215	      1.46891743	      1.02525532	      0.22549661	     22.52812522	     -6.88413900	      0.98437995	    -44.66500031	      8.35017206	    -11.77525120	      1.01316139	     -4.80204587	     13.15000216	      7.36996575	     -3.99988705	      1.83033433	    -16.14342893	      8.27854018	     -2.20941896	     -7.76360871	      1.71071781
      1.86633333	      1.10856523	      6.93683542	      1.56497942	      1.47337678	      1.02505548	      0.22518115	     22.75706396	     -6.91024484	      0.93721514	    -43.67830020	      8.31260151	    -11.72795705	      0.99328478	     -5.14055523	     13.10515086	      7.61512142	     -3.88516100	      1.97170715	    -16.05228190	      8.25899119	     -2.24502222	     -7.76094798	      1.59647868
      1.87050000	      1.05382188	      6.93945770	      1.82699189	      1.47785973	      1.02479719	      0.22484544	     23.00177599	     -6.95533920	      0.86753091	    -42.68062269	      8.27857334	    -11.66364065	      0.98320660	     -5.44889996	     13.06552569	      7.85394542	     -3.78213893	      2.10283321	    -15.94706656	      8.25312639	     -2.24864176	     -7.76145147	      1.53778054
